#!OML:ASF E:\Steps\Project 1\Capture day 1\Session 2\Subject.ASF
:FULLY-SPECIFIED
:DEGREES
281
root 9.20112 21.2544 8.84621 22.3326 -53.8189 6.06757
lowerback -27.2234 -2.10215 -4.00981
upperback -4.95769 -1.79917 -0.373874
thorax 9.63947 -1.07022 1.24817
lowerneck -0.346174 9.09649 -0.677958
upperneck -3.49658 12.1286 0.0067876
head -1.05778 6.06475 0.00651878
rclavicle -9.66917e-014 1.59525e-014
rhumerus -49.9207 0.860829 -79.2412
rradius 48.9023
rwrist -5.57845
rhand -8.20877 -50.1568
rfingers 7.12502
rthumb 17.708 -439.37
lclavicle -9.66917e-014 1.59525e-014
lhumerus -26.2691 -13.6244 85.0788
lradius 41.2288
lwrist 6.33905
lhand -27.6526 -18.6754
lfingers 7.12502
lthumb -1.05039 11.3017
rfemur -34.4468 4.13447 15.3935
rtibia 19.0733
rfoot 15.3685 -16.9686
rtoes -29.1066
lfemur -37.3802 -7.06431 -17.8558
ltibia 22.966
lfoot 23.8327 8.53639
ltoes -45.0107
282
root 9.18296 21.2136 8.8651 22.8899 -52.3283 5.53245
lowerback -27.4434 -1.91564 -3.73368
upperback -4.99714 -1.61723 -0.416962
thorax 9.68924 -0.973843 1.10116
lowerneck 0.0120944 9.25291 -1.11027
upperneck -3.24234 12.3369 0.155042
head -1.07626 6.17275 0.100793
rclavicle 3.79244e-015 -1.48778e-014
rhumerus -50.0027 1.19781 -79.2924
rradius 48.943
rwrist -5.54522
rhand -7.49018 -48.1599
rfingers 7.12502
rthumb 18.3993 -437.31
lclavicle 3.79244e-015 -1.48778e-014
lhumerus -26.4457 -13.8396 84.7033
lradius 41.3416
lwrist 6.12013
lhand -27.812 -18.6485
lfingers 7.12502
lthumb -1.20434 11.3279
rfemur -34.5811 4.60485 15.0697
rtibia 18.9156
rfoot 14.8557 -16.9401
rtoes -29.0303
lfemur -36.8473 -6.8082 -17.5991
ltibia 22.4004
lfoot 23.8531 9.32085
ltoes -44.9199
283
root 9.16679 21.1751 8.86473 23.1223 -50.707 5.33172
lowerback -27.4922 -1.79014 -3.75862
upperback -5.04585 -1.42685 -0.538057
thorax 9.64663 -0.879678 1.04703
lowerneck -0.0194151 9.1621 -0.587934
upperneck -2.84333 12.2301 0.55108
head -0.939041 6.11004 0.154984
rclavicle -5.2445e-014 1.11568e-014
rhumerus -50.083 1.39115 -79.377
rradius 48.9826
rwrist -5.62362
rhand -8.51329 -48.956
rfingers 7.12502
rthumb 17.4149 -438.196
lclavicle -5.2445e-014 1.11568e-014
lhumerus -26.5971 -14.0162 84.3053
lradius 41.3687
lwrist 5.79305
lhand -27.7911 -18.5444
lfingers 7.12502
lthumb -1.18416 11.4321
rfemur -34.7249 5.70405 14.2492
rtibia 18.6737
rfoot 13.9046 -18.1361
rtoes -26.3767
lfemur -36.5049 -6.38971 -17.5594
ltibia 22.1653
lfoot 24.3001 8.66045
ltoes -47.4545
284
root 9.15009 21.1203 8.87225 23.0756 -49.3245 5.49136
lowerback -27.7864 -1.63024 -3.85302
upperback -4.93413 -1.12876 -0.873206
thorax 9.90308 -0.737942 0.823167
lowerneck -0.157365 8.91587 -0.866758
upperneck -2.78491 11.9164 1.20279
head -0.956547 5.94985 0.399561
rclavicle 8.16197e-014 -4.41302e-014
rhumerus -49.8353 1.39389 -79.6229
rradius 48.9308
rwrist -5.51007
rhand -9.00548 -49.4121
rfingers 7.12502
rthumb 16.9412 -438.693
lclavicle 8.16197e-014 -4.41302e-014
lhumerus -26.4149 -14.4169 83.6037
lradius 41.1218
lwrist 5.65231
lhand -27.7941 -18.5095
lfingers 7.12502
lthumb -1.18705 11.4669
rfemur -34.9563 6.54281 13.312
rtibia 18.5816
rfoot 13.6963 -18.2127
rtoes -26.5429
lfemur -36.0735 -6.02707 -17.8121
ltibia 21.8227
lfoot 24.6966 8.33866
ltoes -46.8608
285
root 9.13178 21.0522 8.88973 23.203 -47.9385 5.48229
lowerback -27.8112 -1.75627 -4.06439
upperback -5.03699 -1.23606 -0.816243
thorax 9.80765 -0.792228 0.972174
lowerneck -0.293035 8.88034 -2.09512
upperneck -2.62319 11.878 1.7981
head -1.00064 5.93825 0.774075
rclavicle -4.0726e-014 -3.53837e-014
rhumerus -49.6389 2.20641 -79.6475
rradius 48.8944
rwrist -5.28162
rhand -8.40934 -49.341
rfingers 7.12502
rthumb 17.5149 -438.572
lclavicle -4.0726e-014 -3.53837e-014
lhumerus -26.6575 -14.1624 83.0852
lradius 40.847
lwrist 5.38196
lhand -28.1452 -18.4429
lfingers 7.12502
lthumb -1.5261 11.5314
rfemur -35.0779 7.08008 12.5986
rtibia 18.3634
rfoot 13.8571 -17.4676
rtoes -27.1871
lfemur -35.6496 -5.71453 -17.9528
ltibia 21.393
lfoot 24.7681 8.49268
ltoes -45.0995
286
root 9.1219 20.9842 8.88146 22.9516 -46.395 5.74726
lowerback -27.2659 -1.93517 -4.57098
upperback -5.1271 -1.35138 -0.776621
thorax 9.44451 -0.852209 1.28027
lowerneck -0.288185 8.73326 -3.8245
upperneck -3.06222 11.69 2.24329
head -1.27742 5.85792 1.17006
rclavicle 8.48438e-014 1.28713e-014
rhumerus -49.346 2.76115 -79.4331
rradius 48.8766
rwrist -5.11373
rhand -7.97121 -49.7976
rfingers 7.12502
rthumb 17.9365 -438.99
lclavicle 8.48438e-014 1.28713e-014
lhumerus -26.7566 -13.9003 82.5977
lradius 40.6474
lwrist 5.04556
lhand -28.3341 -18.308
lfingers 7.12502
lthumb -1.70863 11.6649
rfemur -35.1344 7.73927 11.6918
rtibia 17.9992
rfoot 14.88 -16.559
rtoes -30.9974
lfemur -35.3603 -5.4194 -18.2718
ltibia 21.3294
lfoot 24.6842 7.9785
ltoes -46.8847
